<?xml version="1.0" encoding="UTF-8"?>
<svg xmlns="http://www.w3.org/2000/svg" xmlns:xlink="http://www.w3.org/1999/xlink" width="854" height="480" viewBox="0 0 854 480">
<defs>
<g>
<g id="glyph-0-0">
<path d="M 1.613281 -2.867188 C 1.785156 -2.867188 1.960938 -2.835938 2.136719 -2.773438 C 2.316406 -2.707031 2.414062 -2.675781 2.433594 -2.675781 C 2.488281 -2.675781 2.53125 -2.695312 2.5625 -2.738281 C 2.59375 -2.777344 2.613281 -2.820312 2.621094 -2.863281 L 2.738281 -2.863281 L 2.738281 -1.890625 L 2.632812 -1.890625 C 2.53125 -2.101562 2.429688 -2.269531 2.324219 -2.390625 C 2.128906 -2.617188 1.910156 -2.726562 1.664062 -2.726562 C 1.382812 -2.726562 1.183594 -2.609375 1.066406 -2.367188 C 0.949219 -2.125 0.890625 -1.804688 0.890625 -1.398438 C 0.890625 -1.097656 0.925781 -0.855469 0.996094 -0.660156 C 1.125 -0.300781 1.363281 -0.121094 1.714844 -0.121094 C 1.929688 -0.121094 2.125 -0.179688 2.3125 -0.300781 C 2.417969 -0.367188 2.542969 -0.480469 2.6875 -0.628906 L 2.808594 -0.527344 C 2.648438 -0.347656 2.503906 -0.214844 2.378906 -0.132812 C 2.160156 0.0117188 1.917969 0.0820312 1.648438 0.0820312 C 1.238281 0.0820312 0.890625 -0.0390625 0.613281 -0.28125 C 0.304688 -0.550781 0.152344 -0.917969 0.152344 -1.375 C 0.152344 -1.828125 0.300781 -2.195312 0.59375 -2.472656 C 0.871094 -2.738281 1.210938 -2.867188 1.613281 -2.867188 Z "/>
</g>
<g id="glyph-0-1">
<path d="M 0.0742188 -0.105469 C 0.1875 -0.109375 0.265625 -0.125 0.3125 -0.152344 C 0.390625 -0.195312 0.425781 -0.277344 0.425781 -0.398438 L 0.425781 -2.414062 C 0.425781 -2.53125 0.394531 -2.613281 0.324219 -2.65625 C 0.28125 -2.679688 0.199219 -2.699219 0.0742188 -2.710938 L 0.0742188 -2.816406 L 1.484375 -2.816406 L 1.484375 -2.710938 C 1.363281 -2.703125 1.277344 -2.6875 1.230469 -2.660156 C 1.152344 -2.617188 1.113281 -2.535156 1.113281 -2.414062 L 1.113281 -1.550781 L 2.105469 -1.550781 L 2.105469 -2.414062 C 2.105469 -2.535156 2.070312 -2.617188 1.992188 -2.660156 C 1.945312 -2.683594 1.863281 -2.703125 1.734375 -2.710938 L 1.734375 -2.816406 L 3.152344 -2.816406 L 3.152344 -2.710938 C 3.03125 -2.699219 2.949219 -2.683594 2.902344 -2.65625 C 2.828125 -2.613281 2.792969 -2.535156 2.792969 -2.414062 L 2.792969 -0.398438 C 2.792969 -0.277344 2.832031 -0.195312 2.914062 -0.152344 C 2.960938 -0.125 3.042969 -0.109375 3.152344 -0.105469 L 3.152344 0 L 1.734375 0 L 1.734375 -0.105469 C 1.855469 -0.109375 1.941406 -0.125 1.988281 -0.15625 C 2.066406 -0.199219 2.105469 -0.28125 2.105469 -0.398438 L 2.105469 -1.359375 L 1.113281 -1.359375 L 1.113281 -0.398438 C 1.113281 -0.273438 1.15625 -0.191406 1.238281 -0.148438 C 1.289062 -0.125 1.371094 -0.109375 1.484375 -0.105469 L 1.484375 0 L 0.0742188 0 Z "/>
</g>
</g>
</defs>
<g fill="rgb(0%, 0%, 0%)" fill-opacity="1">
<use xlink:href="#glyph-0-0" x="30" y="23.125"/>
<use xlink:href="#glyph-0-1" x="33" y="23.125"/>
</g>
</svg>
