<?xml version="1.0" encoding="UTF-8"?>
<svg xmlns="http://www.w3.org/2000/svg" xmlns:xlink="http://www.w3.org/1999/xlink" width="854" height="480" viewBox="0 0 854 480">
<defs>
<g>
<g id="glyph-0-0">
<path d="M 0.871094 -1.125 C 1.070312 -1.128906 1.203125 -1.152344 1.269531 -1.195312 C 1.375 -1.261719 1.425781 -1.40625 1.425781 -1.628906 C 1.425781 -1.78125 1.398438 -1.902344 1.347656 -1.996094 C 1.296875 -2.089844 1.199219 -2.136719 1.054688 -2.136719 C 0.988281 -2.136719 0.941406 -2.128906 0.914062 -2.113281 C 0.886719 -2.097656 0.871094 -2.066406 0.871094 -2.019531 Z M 0.0546875 -0.0859375 C 0.164062 -0.09375 0.238281 -0.117188 0.273438 -0.152344 C 0.3125 -0.191406 0.332031 -0.269531 0.332031 -0.390625 L 0.332031 -1.863281 C 0.332031 -1.988281 0.3125 -2.066406 0.273438 -2.101562 C 0.234375 -2.132812 0.164062 -2.15625 0.0546875 -2.167969 L 0.0546875 -2.253906 L 1.125 -2.253906 C 1.410156 -2.253906 1.625 -2.207031 1.773438 -2.113281 C 1.921875 -2.023438 1.996094 -1.863281 1.996094 -1.640625 C 1.996094 -1.53125 1.96875 -1.425781 1.910156 -1.332031 C 1.851562 -1.234375 1.757812 -1.15625 1.621094 -1.097656 C 1.519531 -1.058594 1.421875 -1.03125 1.320312 -1.023438 C 1.21875 -1.015625 1.070312 -1.011719 0.871094 -1.011719 L 0.871094 -0.390625 C 0.871094 -0.265625 0.890625 -0.1875 0.933594 -0.148438 C 0.972656 -0.109375 1.050781 -0.0898438 1.164062 -0.0859375 L 1.164062 0 L 0.0546875 0 Z "/>
</g>
<g id="glyph-0-1">
<path d="M 1.179688 -2.253906 L 1.179688 -2.167969 C 1.050781 -2.164062 0.964844 -2.144531 0.921875 -2.109375 C 0.878906 -2.074219 0.855469 -1.988281 0.855469 -1.863281 L 0.855469 -0.746094 C 0.855469 -0.578125 0.875 -0.445312 0.917969 -0.355469 C 0.988281 -0.183594 1.128906 -0.0976562 1.335938 -0.0976562 C 1.589844 -0.0976562 1.761719 -0.191406 1.855469 -0.382812 C 1.902344 -0.488281 1.929688 -0.632812 1.929688 -0.820312 L 1.929688 -1.839844 C 1.929688 -1.957031 1.90625 -2.039062 1.863281 -2.085938 C 1.820312 -2.128906 1.734375 -2.15625 1.605469 -2.167969 L 1.605469 -2.253906 L 2.335938 -2.253906 L 2.335938 -2.167969 C 2.230469 -2.148438 2.160156 -2.121094 2.125 -2.09375 C 2.089844 -2.0625 2.074219 -1.992188 2.074219 -1.886719 L 2.074219 -0.820312 C 2.074219 -0.535156 2.007812 -0.320312 1.871094 -0.164062 C 1.734375 -0.0117188 1.519531 0.0664062 1.226562 0.0664062 C 0.84375 0.0664062 0.582031 -0.046875 0.4375 -0.277344 C 0.363281 -0.398438 0.328125 -0.554688 0.328125 -0.746094 L 0.328125 -1.863281 C 0.328125 -1.988281 0.3125 -2.066406 0.277344 -2.097656 C 0.246094 -2.132812 0.167969 -2.15625 0.0546875 -2.167969 L 0.0546875 -2.253906 Z "/>
</g>
<g id="glyph-0-2">
<path d="M 0.046875 -0.0859375 C 0.171875 -0.0859375 0.253906 -0.109375 0.292969 -0.152344 C 0.332031 -0.195312 0.351562 -0.261719 0.351562 -0.351562 L 0.351562 -1.933594 C 0.351562 -2.023438 0.328125 -2.082031 0.285156 -2.113281 C 0.242188 -2.140625 0.164062 -2.160156 0.0546875 -2.167969 L 0.0546875 -2.253906 L 0.894531 -2.253906 L 1.550781 -0.710938 L 1.578125 -0.710938 L 2.230469 -2.253906 L 3.070312 -2.253906 L 3.070312 -2.167969 C 2.957031 -2.160156 2.878906 -2.136719 2.839844 -2.105469 C 2.796875 -2.070312 2.777344 -1.992188 2.777344 -1.863281 L 2.777344 -0.390625 C 2.777344 -0.265625 2.796875 -0.1875 2.839844 -0.148438 C 2.878906 -0.109375 2.957031 -0.0898438 3.070312 -0.0859375 L 3.070312 0 L 1.960938 0 L 1.960938 -0.0859375 C 2.0625 -0.0898438 2.136719 -0.105469 2.1875 -0.132812 C 2.234375 -0.164062 2.261719 -0.230469 2.261719 -0.332031 L 2.261719 -1.960938 L 2.234375 -1.960938 L 1.417969 0 L 1.328125 0 L 0.503906 -1.921875 L 0.488281 -1.921875 L 0.488281 -0.410156 C 0.488281 -0.300781 0.511719 -0.21875 0.550781 -0.167969 C 0.59375 -0.117188 0.683594 -0.0898438 0.824219 -0.0859375 L 0.824219 0 L 0.046875 0 Z "/>
</g>
</g>
</defs>
<g fill="rgb(0%, 0%, 0%)" fill-opacity="1">
<use xlink:href="#glyph-0-0" x="30" y="22.5"/>
<use xlink:href="#glyph-0-1" x="32" y="22.5"/>
<use xlink:href="#glyph-0-2" x="34" y="22.5"/>
<use xlink:href="#glyph-0-0" x="37" y="22.5"/>
</g>
</svg>
