<?xml version="1.0" encoding="UTF-8"?>
<svg xmlns="http://www.w3.org/2000/svg" xmlns:xlink="http://www.w3.org/1999/xlink" width="854" height="480" viewBox="0 0 854 480">
<defs>
<g>
<g id="glyph-0-0">
<path d="M 0.0742188 -0.265625 C 0.0742188 -0.320312 0.0898438 -0.371094 0.128906 -0.410156 C 0.164062 -0.449219 0.214844 -0.46875 0.277344 -0.46875 C 0.359375 -0.46875 0.464844 -0.417969 0.601562 -0.320312 C 0.738281 -0.222656 0.84375 -0.175781 0.917969 -0.175781 C 1.003906 -0.175781 1.082031 -0.207031 1.144531 -0.269531 C 1.210938 -0.332031 1.242188 -0.414062 1.242188 -0.519531 C 1.242188 -0.625 1.207031 -0.71875 1.132812 -0.792969 C 1.058594 -0.867188 0.976562 -0.925781 0.886719 -0.964844 C 0.789062 -1.011719 0.679688 -1.042969 0.554688 -1.0625 C 0.472656 -1.078125 0.347656 -1.089844 0.167969 -1.101562 L 0.492188 -2.253906 L 1.566406 -2.253906 L 1.421875 -1.828125 L 0.496094 -1.828125 L 0.421875 -1.558594 C 0.679688 -1.550781 0.890625 -1.511719 1.050781 -1.445312 C 1.351562 -1.320312 1.503906 -1.097656 1.503906 -0.773438 C 1.503906 -0.539062 1.414062 -0.347656 1.234375 -0.195312 C 1.054688 -0.0429688 0.828125 0.03125 0.554688 0.03125 C 0.417969 0.03125 0.300781 0.00390625 0.210938 -0.0507812 C 0.117188 -0.105469 0.0742188 -0.175781 0.0742188 -0.265625 Z "/>
</g>
<g id="glyph-0-1">
<path d="M 0.144531 -0.957031 L 0.957031 -0.957031 L 0.957031 -0.570312 L 0.144531 -0.570312 Z "/>
</g>
<g id="glyph-0-2">
<path d="M 0.0585938 -0.078125 C 0.414062 -0.460938 0.644531 -0.726562 0.75 -0.878906 C 0.914062 -1.105469 0.996094 -1.308594 0.996094 -1.484375 C 0.996094 -1.589844 0.964844 -1.6875 0.902344 -1.777344 C 0.839844 -1.867188 0.742188 -1.914062 0.605469 -1.914062 C 0.488281 -1.914062 0.390625 -1.871094 0.3125 -1.789062 C 0.269531 -1.746094 0.230469 -1.6875 0.195312 -1.609375 L 0.105469 -1.609375 C 0.179688 -1.839844 0.28125 -2.011719 0.410156 -2.125 C 0.539062 -2.234375 0.6875 -2.292969 0.847656 -2.292969 C 1.003906 -2.292969 1.144531 -2.238281 1.269531 -2.132812 C 1.394531 -2.023438 1.457031 -1.867188 1.457031 -1.660156 C 1.457031 -1.550781 1.429688 -1.441406 1.371094 -1.328125 C 1.3125 -1.214844 1.210938 -1.089844 1.070312 -0.957031 L 0.5625 -0.46875 L 0.5625 -0.441406 L 1.035156 -0.441406 C 1.199219 -0.441406 1.308594 -0.457031 1.359375 -0.484375 C 1.410156 -0.511719 1.460938 -0.582031 1.511719 -0.703125 L 1.589844 -0.703125 L 1.441406 0 L 0.0585938 0 Z "/>
</g>
<g id="glyph-0-3">
<path d="M 0.0546875 -0.0859375 C 0.175781 -0.0898438 0.257812 -0.113281 0.292969 -0.15625 C 0.328125 -0.199219 0.347656 -0.265625 0.347656 -0.351562 L 0.347656 -1.929688 C 0.246094 -2.042969 0.183594 -2.109375 0.15625 -2.128906 C 0.132812 -2.148438 0.101562 -2.164062 0.0585938 -2.167969 L 0.0585938 -2.253906 L 0.765625 -2.253906 L 1.914062 -0.847656 L 1.929688 -0.847656 L 1.929688 -1.839844 C 1.929688 -1.953125 1.90625 -2.03125 1.867188 -2.082031 C 1.824219 -2.128906 1.742188 -2.15625 1.621094 -2.167969 L 1.621094 -2.253906 L 2.335938 -2.253906 L 2.335938 -2.167969 C 2.234375 -2.152344 2.164062 -2.128906 2.128906 -2.097656 C 2.09375 -2.070312 2.074219 -2.003906 2.074219 -1.902344 L 2.074219 0.0625 L 1.980469 0.0625 L 0.515625 -1.71875 L 0.492188 -1.71875 L 0.492188 -0.410156 C 0.492188 -0.308594 0.507812 -0.238281 0.535156 -0.195312 C 0.578125 -0.125 0.671875 -0.0898438 0.808594 -0.0859375 L 0.808594 0 L 0.0546875 0 Z "/>
</g>
<g id="glyph-0-4">
<path d="M 0.601562 -0.742188 C 0.601562 -0.46875 0.621094 -0.285156 0.660156 -0.191406 C 0.699219 -0.0976562 0.757812 -0.046875 0.832031 -0.046875 C 0.929688 -0.046875 0.996094 -0.136719 1.027344 -0.3125 C 1.046875 -0.410156 1.054688 -0.550781 1.054688 -0.742188 L 1.054688 -1.503906 C 1.054688 -1.773438 1.035156 -1.957031 1 -2.050781 C 0.960938 -2.144531 0.902344 -2.195312 0.828125 -2.195312 C 0.753906 -2.195312 0.699219 -2.144531 0.660156 -2.050781 C 0.621094 -1.953125 0.601562 -1.773438 0.601562 -1.503906 Z M 0.078125 -1.105469 C 0.078125 -1.503906 0.164062 -1.8125 0.34375 -2.03125 C 0.484375 -2.203125 0.644531 -2.292969 0.828125 -2.292969 C 1.039062 -2.292969 1.214844 -2.183594 1.359375 -1.972656 C 1.507812 -1.753906 1.582031 -1.476562 1.582031 -1.144531 C 1.582031 -0.753906 1.496094 -0.449219 1.332031 -0.230469 C 1.191406 -0.046875 1.023438 0.046875 0.828125 0.046875 C 0.691406 0.046875 0.578125 0.00390625 0.480469 -0.0742188 C 0.382812 -0.15625 0.300781 -0.257812 0.234375 -0.386719 C 0.175781 -0.492188 0.132812 -0.617188 0.109375 -0.753906 C 0.09375 -0.835938 0.0859375 -0.953125 0.078125 -1.105469 Z "/>
</g>
</g>
</defs>
<g fill="rgb(0%, 0%, 0%)" fill-opacity="1">
<use xlink:href="#glyph-0-0" x="30" y="22.5"/>
<use xlink:href="#glyph-0-1" x="32" y="22.5"/>
<use xlink:href="#glyph-0-2" x="33" y="22.5"/>
<use xlink:href="#glyph-0-3" x="35" y="22.5"/>
<use xlink:href="#glyph-0-4" x="37" y="22.5"/>
</g>
</svg>
