<?xml version="1.0" encoding="UTF-8"?>
<svg xmlns="http://www.w3.org/2000/svg" xmlns:xlink="http://www.w3.org/1999/xlink" width="854" height="480" viewBox="0 0 854 480">
<defs>
<g>
<g id="glyph-0-0">
<path d="M 0.0546875 -0.0859375 C 0.148438 -0.0898438 0.21875 -0.101562 0.257812 -0.125 C 0.320312 -0.160156 0.351562 -0.222656 0.351562 -0.320312 L 0.351562 -1.933594 C 0.351562 -2.027344 0.320312 -2.09375 0.257812 -2.128906 C 0.222656 -2.148438 0.152344 -2.160156 0.0546875 -2.167969 L 0.0546875 -2.253906 L 1.941406 -2.253906 L 1.941406 -1.582031 L 1.863281 -1.582031 C 1.820312 -1.789062 1.75 -1.933594 1.652344 -2.015625 C 1.554688 -2.097656 1.375 -2.140625 1.113281 -2.140625 C 1.015625 -2.140625 0.953125 -2.128906 0.925781 -2.105469 C 0.898438 -2.085938 0.886719 -2.042969 0.886719 -1.980469 L 0.886719 -1.210938 C 1.066406 -1.207031 1.1875 -1.246094 1.253906 -1.324219 C 1.316406 -1.402344 1.363281 -1.53125 1.394531 -1.703125 L 1.480469 -1.703125 L 1.480469 -0.578125 L 1.394531 -0.578125 C 1.371094 -0.757812 1.328125 -0.890625 1.257812 -0.972656 C 1.191406 -1.054688 1.066406 -1.09375 0.886719 -1.09375 L 0.886719 -0.320312 C 0.886719 -0.214844 0.917969 -0.152344 0.976562 -0.121094 C 1.039062 -0.09375 1.128906 -0.0820312 1.253906 -0.0859375 L 1.253906 0 L 0.0546875 0 Z "/>
</g>
<g id="glyph-0-1">
<path d="M 0.0585938 -0.0859375 C 0.152344 -0.0898438 0.214844 -0.101562 0.253906 -0.121094 C 0.320312 -0.15625 0.355469 -0.222656 0.355469 -0.320312 L 0.355469 -1.933594 C 0.355469 -2.03125 0.324219 -2.09375 0.261719 -2.128906 C 0.222656 -2.148438 0.15625 -2.164062 0.0585938 -2.167969 L 0.0585938 -2.253906 L 1.226562 -2.253906 L 1.226562 -2.167969 C 1.089844 -2.164062 1 -2.144531 0.953125 -2.109375 C 0.910156 -2.078125 0.886719 -1.996094 0.886719 -1.863281 L 0.886719 -0.289062 C 0.886719 -0.214844 0.90625 -0.164062 0.945312 -0.140625 C 0.984375 -0.117188 1.058594 -0.105469 1.171875 -0.105469 C 1.371094 -0.105469 1.539062 -0.148438 1.675781 -0.238281 C 1.8125 -0.328125 1.929688 -0.5 2.027344 -0.753906 L 2.125 -0.753906 L 1.992188 0 L 0.0585938 0 Z "/>
</g>
<g id="glyph-0-2">
<path d="M 1.308594 -0.785156 L 0.992188 -1.558594 L 0.964844 -1.558594 L 0.664062 -0.785156 Z M 0.0585938 -0.0859375 C 0.140625 -0.0898438 0.203125 -0.125 0.253906 -0.195312 C 0.285156 -0.238281 0.332031 -0.328125 0.390625 -0.472656 L 1.128906 -2.296875 L 1.222656 -2.296875 L 1.964844 -0.546875 C 2.050781 -0.351562 2.113281 -0.222656 2.152344 -0.167969 C 2.195312 -0.109375 2.253906 -0.0820312 2.328125 -0.0859375 L 2.328125 0 L 1.25 0 L 1.25 -0.0859375 C 1.359375 -0.0898438 1.429688 -0.0976562 1.464844 -0.113281 C 1.5 -0.125 1.515625 -0.164062 1.515625 -0.21875 C 1.515625 -0.246094 1.507812 -0.285156 1.488281 -0.339844 C 1.476562 -0.371094 1.464844 -0.40625 1.445312 -0.453125 L 1.359375 -0.652344 L 0.613281 -0.652344 C 0.5625 -0.519531 0.53125 -0.4375 0.515625 -0.394531 C 0.488281 -0.308594 0.472656 -0.246094 0.472656 -0.207031 C 0.472656 -0.160156 0.503906 -0.125 0.570312 -0.105469 C 0.609375 -0.09375 0.664062 -0.0859375 0.742188 -0.0859375 L 0.742188 0 L 0.0585938 0 Z "/>
</g>
<g id="glyph-0-3">
<path d="M 0.0859375 -2.253906 L 2.09375 -2.253906 L 2.097656 -1.582031 L 2 -1.582031 C 1.96875 -1.820312 1.878906 -1.980469 1.730469 -2.066406 C 1.648438 -2.113281 1.523438 -2.140625 1.355469 -2.144531 L 1.355469 -0.390625 C 1.355469 -0.265625 1.378906 -0.183594 1.421875 -0.144531 C 1.464844 -0.105469 1.554688 -0.0859375 1.6875 -0.0859375 L 1.6875 0 L 0.5 0 L 0.5 -0.0859375 C 0.632812 -0.0859375 0.71875 -0.105469 0.761719 -0.144531 C 0.804688 -0.1875 0.824219 -0.265625 0.824219 -0.390625 L 0.824219 -2.144531 C 0.660156 -2.140625 0.539062 -2.113281 0.449219 -2.066406 C 0.289062 -1.980469 0.203125 -1.816406 0.179688 -1.582031 L 0.0859375 -1.582031 Z "/>
</g>
</g>
</defs>
<g fill="rgb(0%, 0%, 0%)" fill-opacity="1">
<use xlink:href="#glyph-0-0" x="30" y="22.5"/>
<use xlink:href="#glyph-0-1" x="32" y="22.5"/>
<use xlink:href="#glyph-0-2" x="34" y="22.5"/>
<use xlink:href="#glyph-0-3" x="36" y="22.5"/>
</g>
</svg>
