<?xml version="1.0" encoding="UTF-8"?>
<svg xmlns="http://www.w3.org/2000/svg" xmlns:xlink="http://www.w3.org/1999/xlink" width="854" height="480" viewBox="0 0 854 480">
<defs>
<g>
<g id="glyph-0-0">
<path d="M 0.0664062 -0.105469 C 0.171875 -0.125 0.25 -0.144531 0.296875 -0.164062 C 0.371094 -0.199219 0.4375 -0.253906 0.5 -0.335938 L 1.230469 -1.257812 L 0.40625 -2.46875 C 0.34375 -2.554688 0.289062 -2.617188 0.246094 -2.652344 C 0.199219 -2.6875 0.140625 -2.707031 0.0703125 -2.710938 L 0.0703125 -2.816406 L 1.515625 -2.816406 L 1.515625 -2.710938 C 1.378906 -2.703125 1.289062 -2.691406 1.246094 -2.675781 C 1.203125 -2.660156 1.179688 -2.628906 1.179688 -2.570312 C 1.179688 -2.546875 1.183594 -2.523438 1.195312 -2.5 C 1.207031 -2.476562 1.222656 -2.449219 1.242188 -2.417969 L 1.648438 -1.792969 C 1.875 -2.113281 2.011719 -2.308594 2.058594 -2.378906 C 2.105469 -2.453125 2.128906 -2.515625 2.128906 -2.5625 C 2.128906 -2.621094 2.09375 -2.664062 2.027344 -2.6875 C 1.988281 -2.699219 1.917969 -2.707031 1.824219 -2.710938 L 1.824219 -2.816406 L 2.863281 -2.816406 L 2.863281 -2.710938 C 2.679688 -2.691406 2.535156 -2.628906 2.425781 -2.523438 C 2.320312 -2.417969 2.09375 -2.121094 1.75 -1.636719 L 2.507812 -0.460938 C 2.605469 -0.308594 2.679688 -0.214844 2.726562 -0.175781 C 2.773438 -0.140625 2.835938 -0.117188 2.910156 -0.105469 L 2.910156 0 L 1.492188 0 L 1.492188 -0.105469 C 1.613281 -0.109375 1.695312 -0.121094 1.734375 -0.128906 C 1.796875 -0.148438 1.828125 -0.183594 1.828125 -0.234375 C 1.828125 -0.253906 1.820312 -0.285156 1.808594 -0.320312 C 1.796875 -0.355469 1.773438 -0.398438 1.738281 -0.453125 L 1.320312 -1.128906 L 1.160156 -0.914062 C 1.027344 -0.734375 0.9375 -0.609375 0.890625 -0.539062 C 0.8125 -0.417969 0.769531 -0.332031 0.769531 -0.28125 C 0.769531 -0.207031 0.820312 -0.15625 0.914062 -0.128906 C 0.96875 -0.113281 1.035156 -0.105469 1.109375 -0.105469 L 1.109375 0 L 0.0664062 0 Z "/>
</g>
</g>
</defs>
<g fill="rgb(0%, 0%, 0%)" fill-opacity="1">
<use xlink:href="#glyph-0-0" x="30" y="23.125"/>
</g>
</svg>
