<?xml version="1.0" encoding="UTF-8"?>
<svg xmlns="http://www.w3.org/2000/svg" xmlns:xlink="http://www.w3.org/1999/xlink" width="2560" height="1440" viewBox="0 0 2560 1440">
<defs>
<g>
<g id="glyph-0-0">
<path d="M 0.0429688 -1.125 L 1.046875 -1.125 L 1.050781 -0.789062 L 1 -0.789062 C 0.984375 -0.910156 0.941406 -0.992188 0.867188 -1.035156 C 0.824219 -1.058594 0.761719 -1.070312 0.679688 -1.070312 L 0.679688 -0.195312 C 0.679688 -0.132812 0.691406 -0.09375 0.710938 -0.0742188 C 0.730469 -0.0546875 0.777344 -0.0429688 0.84375 -0.0429688 L 0.84375 0 L 0.25 0 L 0.25 -0.0429688 C 0.316406 -0.0429688 0.359375 -0.0507812 0.378906 -0.0742188 C 0.402344 -0.09375 0.414062 -0.132812 0.414062 -0.195312 L 0.414062 -1.070312 C 0.332031 -1.070312 0.269531 -1.058594 0.226562 -1.035156 C 0.144531 -0.992188 0.101562 -0.910156 0.0898438 -0.789062 L 0.0429688 -0.789062 Z "/>
</g>
<g id="glyph-0-1">
<path d="M 0.0273438 -0.0429688 C 0.0820312 -0.046875 0.121094 -0.0546875 0.140625 -0.0742188 C 0.164062 -0.09375 0.171875 -0.132812 0.171875 -0.195312 L 0.171875 -0.929688 C 0.171875 -0.996094 0.160156 -1.039062 0.136719 -1.058594 C 0.121094 -1.070312 0.0820312 -1.078125 0.0273438 -1.085938 L 0.0273438 -1.125 L 0.5625 -1.125 C 0.675781 -1.125 0.765625 -1.113281 0.832031 -1.089844 C 0.964844 -1.042969 1.035156 -0.960938 1.035156 -0.835938 C 1.035156 -0.746094 1 -0.675781 0.933594 -0.621094 C 0.882812 -0.582031 0.828125 -0.558594 0.773438 -0.546875 L 1.105469 -0.0742188 C 1.117188 -0.0625 1.125 -0.0507812 1.136719 -0.046875 C 1.148438 -0.0429688 1.160156 -0.0390625 1.175781 -0.0390625 L 1.175781 0 L 0.832031 0 L 0.488281 -0.519531 L 0.445312 -0.519531 L 0.445312 -0.195312 C 0.445312 -0.136719 0.453125 -0.0976562 0.472656 -0.0742188 C 0.492188 -0.0546875 0.53125 -0.0429688 0.589844 -0.0429688 L 0.589844 0 L 0.0273438 0 Z M 0.445312 -0.574219 C 0.554688 -0.574219 0.628906 -0.589844 0.675781 -0.621094 C 0.722656 -0.648438 0.746094 -0.71875 0.746094 -0.820312 C 0.746094 -0.886719 0.738281 -0.9375 0.722656 -0.976562 C 0.691406 -1.039062 0.632812 -1.070312 0.550781 -1.070312 C 0.507812 -1.070312 0.476562 -1.066406 0.464844 -1.054688 C 0.449219 -1.042969 0.445312 -1.023438 0.445312 -1 Z "/>
</g>
</g>
</defs>
<g fill="rgb(100%, 100%, 100%)" fill-opacity="1">
<use xlink:href="#glyph-0-0" x="30" y="21.25"/>
<use xlink:href="#glyph-0-1" x="31" y="21.25"/>
</g>
</svg>
