<?xml version="1.0" encoding="UTF-8"?>
<svg xmlns="http://www.w3.org/2000/svg" xmlns:xlink="http://www.w3.org/1999/xlink" width="2560" height="1440" viewBox="0 0 2560 1440">
<defs>
<g>
<g id="glyph-0-0">
<path d="M 0.0234375 -0.0429688 C 0.0859375 -0.0429688 0.128906 -0.0546875 0.148438 -0.0742188 C 0.167969 -0.0976562 0.175781 -0.132812 0.175781 -0.175781 L 0.175781 -0.964844 C 0.175781 -1.011719 0.164062 -1.042969 0.140625 -1.054688 C 0.121094 -1.070312 0.0820312 -1.078125 0.0273438 -1.085938 L 0.0273438 -1.125 L 0.445312 -1.125 L 0.773438 -0.355469 L 0.789062 -0.355469 L 1.113281 -1.125 L 1.535156 -1.125 L 1.535156 -1.085938 C 1.480469 -1.082031 1.441406 -1.070312 1.417969 -1.054688 C 1.398438 -1.035156 1.386719 -0.996094 1.386719 -0.929688 L 1.386719 -0.195312 C 1.386719 -0.132812 1.398438 -0.09375 1.417969 -0.0742188 C 1.441406 -0.0546875 1.480469 -0.0429688 1.535156 -0.0429688 L 1.535156 0 L 0.980469 0 L 0.980469 -0.0429688 C 1.03125 -0.0429688 1.066406 -0.0507812 1.09375 -0.0664062 C 1.117188 -0.0820312 1.128906 -0.113281 1.128906 -0.164062 L 1.128906 -0.980469 L 1.117188 -0.980469 L 0.710938 0 L 0.664062 0 L 0.253906 -0.960938 L 0.246094 -0.960938 L 0.246094 -0.207031 C 0.246094 -0.152344 0.253906 -0.109375 0.277344 -0.0859375 C 0.296875 -0.0585938 0.34375 -0.046875 0.414062 -0.0429688 L 0.414062 0 L 0.0234375 0 Z "/>
</g>
</g>
</defs>
<g fill="rgb(100%, 100%, 100%)" fill-opacity="1">
<use xlink:href="#glyph-0-0" x="30" y="21.25"/>
</g>
</svg>
