<?xml version="1.0" encoding="UTF-8"?>
<svg xmlns="http://www.w3.org/2000/svg" xmlns:xlink="http://www.w3.org/1999/xlink" width="2560" height="1440" viewBox="0 0 2560 1440">
<defs>
<g>
<g id="glyph-0-0">
<path d="M 0.796875 -1.125 L 0.796875 -1.085938 C 0.738281 -1.082031 0.699219 -1.070312 0.679688 -1.050781 C 0.660156 -1.035156 0.648438 -0.996094 0.648438 -0.929688 L 0.648438 -0.210938 C 0.648438 -0.09375 0.617188 -0.00390625 0.550781 0.0625 C 0.488281 0.128906 0.398438 0.164062 0.28125 0.164062 C 0.199219 0.164062 0.132812 0.140625 0.0820312 0.0976562 C 0.03125 0.0507812 0.00390625 0.00390625 0.00390625 -0.046875 C 0.00390625 -0.0898438 0.0195312 -0.121094 0.0429688 -0.144531 C 0.0664062 -0.167969 0.09375 -0.179688 0.128906 -0.179688 C 0.160156 -0.179688 0.1875 -0.167969 0.207031 -0.144531 C 0.230469 -0.121094 0.238281 -0.09375 0.238281 -0.0625 C 0.238281 -0.0351562 0.234375 -0.0117188 0.21875 0.015625 C 0.207031 0.0390625 0.199219 0.0507812 0.199219 0.0585938 C 0.199219 0.0742188 0.207031 0.0859375 0.21875 0.09375 C 0.230469 0.101562 0.246094 0.105469 0.265625 0.105469 C 0.316406 0.105469 0.347656 0.0898438 0.367188 0.0585938 C 0.375 0.0390625 0.378906 0.00390625 0.378906 -0.0390625 L 0.378906 -0.964844 C 0.378906 -1.015625 0.363281 -1.050781 0.328125 -1.066406 C 0.308594 -1.074219 0.269531 -1.082031 0.210938 -1.085938 L 0.210938 -1.125 Z "/>
</g>
<g id="glyph-0-1">
<path d="M 0.0429688 -1.125 L 1.046875 -1.125 L 1.050781 -0.789062 L 1 -0.789062 C 0.984375 -0.910156 0.941406 -0.992188 0.867188 -1.035156 C 0.824219 -1.058594 0.761719 -1.070312 0.679688 -1.070312 L 0.679688 -0.195312 C 0.679688 -0.132812 0.691406 -0.09375 0.710938 -0.0742188 C 0.730469 -0.0546875 0.777344 -0.0429688 0.84375 -0.0429688 L 0.84375 0 L 0.25 0 L 0.25 -0.0429688 C 0.316406 -0.0429688 0.359375 -0.0507812 0.378906 -0.0742188 C 0.402344 -0.09375 0.414062 -0.132812 0.414062 -0.195312 L 0.414062 -1.070312 C 0.332031 -1.070312 0.269531 -1.058594 0.226562 -1.035156 C 0.144531 -0.992188 0.101562 -0.910156 0.0898438 -0.789062 L 0.0429688 -0.789062 Z "/>
</g>
</g>
</defs>
<g fill="rgb(100%, 100%, 100%)" fill-opacity="1">
<use xlink:href="#glyph-0-0" x="30" y="21.25"/>
<use xlink:href="#glyph-0-1" x="31" y="21.25"/>
</g>
</svg>
