<?xml version="1.0" encoding="UTF-8"?>
<svg xmlns="http://www.w3.org/2000/svg" xmlns:xlink="http://www.w3.org/1999/xlink" width="2560" height="1440" viewBox="0 0 2560 1440">
<defs>
<g>
<g id="glyph-0-0">
<path d="M 0.0273438 -0.0429688 C 0.0703125 -0.0429688 0.105469 -0.0507812 0.125 -0.0585938 C 0.15625 -0.078125 0.171875 -0.109375 0.171875 -0.160156 L 0.171875 -0.964844 C 0.171875 -1.015625 0.15625 -1.046875 0.128906 -1.066406 C 0.109375 -1.074219 0.0742188 -1.082031 0.0273438 -1.085938 L 0.0273438 -1.125 L 0.542969 -1.125 C 0.640625 -1.125 0.722656 -1.113281 0.789062 -1.09375 C 0.914062 -1.050781 0.976562 -0.972656 0.976562 -0.859375 C 0.976562 -0.789062 0.949219 -0.734375 0.898438 -0.695312 C 0.847656 -0.652344 0.796875 -0.628906 0.738281 -0.617188 L 0.738281 -0.601562 C 0.800781 -0.589844 0.851562 -0.570312 0.898438 -0.542969 C 0.988281 -0.488281 1.03125 -0.410156 1.03125 -0.308594 C 1.03125 -0.21875 0.988281 -0.144531 0.902344 -0.0859375 C 0.816406 -0.0273438 0.703125 0 0.5625 0 L 0.0273438 0 Z M 0.441406 -0.621094 C 0.542969 -0.621094 0.613281 -0.636719 0.648438 -0.671875 C 0.683594 -0.707031 0.699219 -0.765625 0.699219 -0.851562 C 0.699219 -0.914062 0.6875 -0.96875 0.664062 -1.011719 C 0.640625 -1.054688 0.597656 -1.074219 0.53125 -1.074219 C 0.496094 -1.074219 0.472656 -1.070312 0.460938 -1.058594 C 0.445312 -1.046875 0.441406 -1.027344 0.441406 -0.996094 Z M 0.441406 -0.152344 C 0.441406 -0.125 0.445312 -0.101562 0.453125 -0.0898438 C 0.464844 -0.0664062 0.492188 -0.0546875 0.53125 -0.0546875 C 0.609375 -0.0546875 0.664062 -0.0742188 0.695312 -0.117188 C 0.726562 -0.160156 0.742188 -0.222656 0.742188 -0.300781 C 0.742188 -0.417969 0.707031 -0.5 0.640625 -0.539062 C 0.597656 -0.5625 0.53125 -0.570312 0.441406 -0.570312 Z "/>
</g>
<g id="glyph-0-1">
<path d="M 0.0234375 -0.0429688 C 0.0664062 -0.046875 0.09375 -0.0507812 0.113281 -0.0585938 C 0.144531 -0.078125 0.160156 -0.109375 0.160156 -0.152344 L 0.160156 -0.972656 C 0.160156 -1.015625 0.148438 -1.046875 0.117188 -1.0625 C 0.0976562 -1.074219 0.0664062 -1.082031 0.0234375 -1.085938 L 0.0234375 -1.125 L 0.53125 -1.125 C 0.738281 -1.125 0.894531 -1.070312 1.003906 -0.960938 C 1.101562 -0.863281 1.148438 -0.726562 1.148438 -0.558594 C 1.148438 -0.410156 1.101562 -0.28125 1.003906 -0.175781 C 0.890625 -0.0585938 0.738281 0 0.550781 0 L 0.0234375 0 Z M 0.429688 -0.152344 C 0.433594 -0.121094 0.4375 -0.09375 0.449219 -0.078125 C 0.460938 -0.0625 0.484375 -0.0585938 0.523438 -0.0585938 C 0.621094 -0.0585938 0.703125 -0.09375 0.765625 -0.160156 C 0.828125 -0.230469 0.859375 -0.363281 0.859375 -0.5625 C 0.859375 -0.679688 0.84375 -0.78125 0.808594 -0.867188 C 0.753906 -1.003906 0.660156 -1.070312 0.527344 -1.070312 C 0.484375 -1.070312 0.457031 -1.0625 0.445312 -1.042969 C 0.4375 -1.03125 0.429688 -1.007812 0.429688 -0.972656 Z "/>
</g>
</g>
</defs>
<g fill="rgb(100%, 100%, 100%)" fill-opacity="1">
<use xlink:href="#glyph-0-0" x="30" y="21.25"/>
<use xlink:href="#glyph-0-1" x="31" y="21.25"/>
</g>
</svg>
