<?xml version="1.0" encoding="UTF-8"?>
<svg xmlns="http://www.w3.org/2000/svg" xmlns:xlink="http://www.w3.org/1999/xlink" width="2560" height="1440" viewBox="0 0 2560 1440">
<defs>
<g>
<g id="glyph-0-0">
<path d="M 2.082031 -4.503906 L 2.082031 -4.335938 C 1.921875 -4.320312 1.8125 -4.296875 1.753906 -4.269531 C 1.695312 -4.238281 1.664062 -4.167969 1.664062 -4.058594 C 1.664062 -4.03125 1.667969 -4 1.671875 -3.960938 C 1.679688 -3.921875 1.691406 -3.882812 1.703125 -3.839844 L 2.472656 -1.511719 L 2.53125 -1.511719 L 3.292969 -3.464844 C 3.296875 -3.476562 3.269531 -3.574219 3.203125 -3.761719 C 3.136719 -3.945312 3.089844 -4.0625 3.0625 -4.105469 C 3.011719 -4.183594 2.957031 -4.238281 2.898438 -4.269531 C 2.839844 -4.304688 2.730469 -4.324219 2.574219 -4.335938 L 2.574219 -4.503906 L 4.660156 -4.503906 L 4.660156 -4.335938 C 4.46875 -4.320312 4.339844 -4.300781 4.277344 -4.273438 C 4.210938 -4.246094 4.179688 -4.191406 4.179688 -4.097656 C 4.179688 -4.078125 4.1875 -4.035156 4.199219 -3.972656 C 4.214844 -3.910156 4.238281 -3.824219 4.273438 -3.71875 L 4.96875 -1.574219 L 5.011719 -1.574219 L 5.738281 -3.761719 C 5.75 -3.800781 5.761719 -3.84375 5.773438 -3.886719 C 5.78125 -3.933594 5.785156 -3.980469 5.785156 -4.035156 C 5.785156 -4.160156 5.738281 -4.242188 5.644531 -4.285156 C 5.589844 -4.308594 5.480469 -4.328125 5.324219 -4.335938 L 5.324219 -4.503906 L 6.542969 -4.503906 L 6.542969 -4.335938 C 6.441406 -4.320312 6.363281 -4.292969 6.304688 -4.257812 C 6.207031 -4.191406 6.132812 -4.074219 6.078125 -3.910156 L 4.742188 0.109375 L 4.566406 0.109375 L 3.449219 -3.015625 L 3.402344 -3.015625 L 2.179688 0.109375 L 1.996094 0.109375 L 0.585938 -3.910156 C 0.523438 -4.085938 0.464844 -4.195312 0.402344 -4.246094 C 0.34375 -4.292969 0.25 -4.324219 0.121094 -4.34375 L 0.121094 -4.503906 Z "/>
</g>
<g id="glyph-0-1">
<path d="M 0.109375 -0.167969 C 0.332031 -0.179688 0.488281 -0.222656 0.570312 -0.296875 C 0.652344 -0.371094 0.695312 -0.53125 0.695312 -0.777344 L 0.695312 -3.722656 C 0.695312 -3.980469 0.644531 -4.152344 0.546875 -4.230469 C 0.480469 -4.28125 0.335938 -4.316406 0.109375 -4.335938 L 0.109375 -4.503906 L 2.253906 -4.503906 C 2.699219 -4.503906 3.058594 -4.457031 3.332031 -4.367188 C 3.867188 -4.175781 4.132812 -3.835938 4.132812 -3.347656 C 4.132812 -2.984375 4 -2.699219 3.734375 -2.492188 C 3.53125 -2.335938 3.3125 -2.234375 3.085938 -2.191406 L 4.425781 -0.292969 C 4.464844 -0.242188 4.503906 -0.207031 4.542969 -0.191406 C 4.585938 -0.175781 4.636719 -0.164062 4.699219 -0.160156 L 4.699219 0 L 3.332031 0 L 1.949219 -2.082031 L 1.773438 -2.082031 L 1.773438 -0.777344 C 1.773438 -0.542969 1.8125 -0.386719 1.890625 -0.304688 C 1.96875 -0.222656 2.125 -0.179688 2.359375 -0.167969 L 2.359375 0 L 0.109375 0 Z M 1.773438 -2.296875 C 2.210938 -2.304688 2.523438 -2.367188 2.710938 -2.480469 C 2.898438 -2.597656 2.992188 -2.867188 2.992188 -3.289062 C 2.992188 -3.546875 2.957031 -3.75 2.882812 -3.898438 C 2.761719 -4.152344 2.535156 -4.28125 2.207031 -4.28125 C 2.027344 -4.28125 1.914062 -4.257812 1.855469 -4.214844 C 1.800781 -4.167969 1.773438 -4.097656 1.773438 -3.996094 Z "/>
</g>
<g id="glyph-0-2">
<path d="M 0 0.894531 L 0 0.441406 L 3.332031 0.441406 L 3.332031 0.894531 Z "/>
</g>
<g id="glyph-0-3">
<path d="M 0.109375 -0.167969 C 0.277344 -0.199219 0.398438 -0.230469 0.472656 -0.265625 C 0.589844 -0.320312 0.699219 -0.410156 0.800781 -0.539062 L 1.964844 -2.011719 L 0.648438 -3.949219 C 0.550781 -4.089844 0.464844 -4.1875 0.390625 -4.242188 C 0.316406 -4.296875 0.226562 -4.328125 0.113281 -4.335938 L 0.113281 -4.503906 L 2.421875 -4.503906 L 2.421875 -4.335938 C 2.207031 -4.324219 2.0625 -4.308594 1.992188 -4.285156 C 1.921875 -4.261719 1.886719 -4.203125 1.886719 -4.113281 C 1.886719 -4.074219 1.898438 -4.039062 1.914062 -4 C 1.929688 -3.964844 1.957031 -3.921875 1.988281 -3.871094 L 2.636719 -2.867188 C 3 -3.378906 3.21875 -3.691406 3.292969 -3.808594 C 3.367188 -3.925781 3.40625 -4.023438 3.40625 -4.101562 C 3.40625 -4.195312 3.351562 -4.261719 3.242188 -4.296875 C 3.179688 -4.316406 3.070312 -4.328125 2.917969 -4.335938 L 2.917969 -4.503906 L 4.582031 -4.503906 L 4.582031 -4.335938 C 4.289062 -4.308594 4.054688 -4.207031 3.882812 -4.039062 C 3.710938 -3.867188 3.351562 -3.394531 2.800781 -2.621094 L 4.011719 -0.738281 C 4.167969 -0.492188 4.285156 -0.34375 4.359375 -0.285156 C 4.433594 -0.226562 4.535156 -0.1875 4.660156 -0.167969 L 4.660156 0 L 2.390625 0 L 2.390625 -0.167969 C 2.585938 -0.175781 2.714844 -0.191406 2.777344 -0.207031 C 2.875 -0.234375 2.921875 -0.292969 2.921875 -0.378906 C 2.921875 -0.410156 2.914062 -0.457031 2.890625 -0.511719 C 2.871094 -0.570312 2.835938 -0.640625 2.785156 -0.722656 L 2.113281 -1.804688 L 1.859375 -1.464844 C 1.644531 -1.175781 1.5 -0.972656 1.421875 -0.859375 C 1.296875 -0.667969 1.234375 -0.53125 1.234375 -0.449219 C 1.234375 -0.332031 1.3125 -0.25 1.464844 -0.207031 C 1.550781 -0.183594 1.65625 -0.167969 1.773438 -0.167969 L 1.773438 0 L 0.109375 0 Z "/>
</g>
<g id="glyph-0-4">
<rect x="0" y="0" width="0" height="0" mask="url(#mask-0)"/>
</g>
<g id="glyph-0-5">
<path d="M 1.773438 -3.070312 L 1.773438 -2.90625 C 1.65625 -2.902344 1.570312 -2.890625 1.507812 -2.867188 C 1.449219 -2.847656 1.417969 -2.800781 1.417969 -2.726562 C 1.417969 -2.710938 1.425781 -2.679688 1.445312 -2.632812 C 1.460938 -2.585938 1.472656 -2.550781 1.480469 -2.53125 L 1.984375 -1.25 L 2.035156 -1.25 L 2.484375 -2.390625 C 2.503906 -2.445312 2.523438 -2.5 2.539062 -2.554688 C 2.550781 -2.613281 2.558594 -2.65625 2.558594 -2.6875 C 2.558594 -2.78125 2.527344 -2.839844 2.464844 -2.867188 C 2.402344 -2.890625 2.308594 -2.90625 2.191406 -2.90625 L 2.191406 -3.070312 L 3.199219 -3.070312 L 3.199219 -2.90625 C 3.109375 -2.898438 3.039062 -2.871094 2.980469 -2.820312 C 2.925781 -2.769531 2.871094 -2.679688 2.816406 -2.546875 L 1.742188 0.09375 L 1.574219 0.09375 L 0.773438 -1.882812 C 0.714844 -2.019531 0.660156 -2.152344 0.605469 -2.273438 C 0.554688 -2.394531 0.5 -2.511719 0.441406 -2.628906 C 0.378906 -2.746094 0.332031 -2.816406 0.296875 -2.847656 C 0.261719 -2.878906 0.199219 -2.898438 0.109375 -2.90625 L 0.109375 -3.070312 Z "/>
</g>
<g id="glyph-0-6">
<path d="M 0.167969 -1.007812 L 0.355469 -1.007812 C 0.421875 -0.691406 0.542969 -0.464844 0.71875 -0.332031 C 0.898438 -0.203125 1.078125 -0.136719 1.265625 -0.136719 C 1.4375 -0.136719 1.5625 -0.175781 1.644531 -0.253906 C 1.722656 -0.328125 1.765625 -0.429688 1.765625 -0.558594 C 1.765625 -0.675781 1.722656 -0.777344 1.632812 -0.863281 C 1.585938 -0.910156 1.507812 -0.957031 1.402344 -1.007812 L 0.910156 -1.25 C 0.648438 -1.378906 0.460938 -1.515625 0.347656 -1.667969 C 0.234375 -1.816406 0.175781 -1.992188 0.175781 -2.199219 C 0.175781 -2.457031 0.265625 -2.679688 0.445312 -2.867188 C 0.625 -3.054688 0.878906 -3.148438 1.203125 -3.148438 C 1.34375 -3.148438 1.492188 -3.125 1.652344 -3.078125 C 1.808594 -3.03125 1.90625 -3.007812 1.945312 -3.007812 C 2 -3.007812 2.039062 -3.019531 2.0625 -3.042969 C 2.085938 -3.066406 2.105469 -3.097656 2.121094 -3.136719 L 2.265625 -3.136719 L 2.265625 -2.175781 L 2.097656 -2.175781 C 2.035156 -2.402344 1.929688 -2.582031 1.789062 -2.71875 C 1.644531 -2.855469 1.476562 -2.921875 1.285156 -2.921875 C 1.136719 -2.921875 1.027344 -2.882812 0.957031 -2.800781 C 0.882812 -2.71875 0.847656 -2.628906 0.847656 -2.53125 C 0.847656 -2.453125 0.878906 -2.375 0.945312 -2.296875 C 1.007812 -2.21875 1.125 -2.136719 1.300781 -2.050781 L 1.667969 -1.875 C 1.894531 -1.765625 2.058594 -1.660156 2.160156 -1.558594 C 2.335938 -1.386719 2.421875 -1.171875 2.421875 -0.917969 C 2.421875 -0.671875 2.332031 -0.441406 2.152344 -0.226562 C 1.972656 -0.0117188 1.707031 0.09375 1.347656 0.09375 C 1.257812 0.09375 1.167969 0.0859375 1.078125 0.0664062 C 0.988281 0.046875 0.878906 0.015625 0.746094 -0.03125 L 0.632812 -0.0703125 C 0.589844 -0.0859375 0.566406 -0.09375 0.554688 -0.09375 C 0.546875 -0.0976562 0.53125 -0.0976562 0.519531 -0.0976562 C 0.480469 -0.0976562 0.449219 -0.0820312 0.421875 -0.0546875 C 0.394531 -0.0234375 0.363281 0.0234375 0.328125 0.09375 L 0.167969 0.09375 Z "/>
</g>
<g id="glyph-0-7">
<path d="M 2.578125 -4.589844 C 2.855469 -4.589844 3.136719 -4.539062 3.421875 -4.433594 C 3.707031 -4.332031 3.863281 -4.28125 3.898438 -4.28125 C 3.980469 -4.28125 4.050781 -4.3125 4.101562 -4.378906 C 4.152344 -4.445312 4.183594 -4.511719 4.195312 -4.582031 L 4.382812 -4.582031 L 4.382812 -3.023438 L 4.210938 -3.023438 C 4.050781 -3.363281 3.886719 -3.628906 3.722656 -3.824219 C 3.410156 -4.183594 3.054688 -4.367188 2.660156 -4.367188 C 2.210938 -4.367188 1.894531 -4.171875 1.707031 -3.789062 C 1.519531 -3.402344 1.425781 -2.886719 1.425781 -2.238281 C 1.425781 -1.757812 1.480469 -1.367188 1.59375 -1.058594 C 1.796875 -0.480469 2.179688 -0.191406 2.742188 -0.191406 C 3.085938 -0.191406 3.402344 -0.289062 3.699219 -0.480469 C 3.867188 -0.589844 4.066406 -0.765625 4.296875 -1.007812 L 4.496094 -0.847656 C 4.234375 -0.554688 4.007812 -0.34375 3.808594 -0.214844 C 3.457031 0.015625 3.066406 0.132812 2.636719 0.132812 C 1.980469 0.132812 1.429688 -0.0625 0.984375 -0.453125 C 0.492188 -0.882812 0.246094 -1.464844 0.246094 -2.199219 C 0.246094 -2.921875 0.480469 -3.507812 0.949219 -3.957031 C 1.394531 -4.378906 1.9375 -4.589844 2.578125 -4.589844 Z "/>
</g>
<g id="glyph-0-8">
<path d="M 0.445312 -0.160156 C 0.785156 -0.160156 1 -0.207031 1.097656 -0.296875 C 1.191406 -0.390625 1.242188 -0.566406 1.242188 -0.824219 L 1.242188 -3.390625 C 1.242188 -3.554688 1.222656 -3.675781 1.183594 -3.742188 C 1.144531 -3.8125 1.074219 -3.847656 0.972656 -3.847656 C 0.917969 -3.847656 0.835938 -3.828125 0.722656 -3.792969 C 0.652344 -3.769531 0.554688 -3.734375 0.429688 -3.6875 L 0.429688 -3.859375 L 2.113281 -4.582031 L 2.230469 -4.582031 L 2.230469 -0.785156 C 2.230469 -0.542969 2.269531 -0.375 2.347656 -0.289062 C 2.425781 -0.203125 2.625 -0.160156 2.945312 -0.160156 L 2.945312 0 L 0.445312 0 Z "/>
</g>
<g id="glyph-0-9">
<path d="M 0.292969 -1.910156 L 1.910156 -1.910156 L 1.910156 -1.140625 L 0.292969 -1.140625 Z "/>
</g>
<g id="glyph-0-10">
<path d="M 0.121094 -0.160156 C 0.25 -0.175781 0.335938 -0.207031 0.386719 -0.25 C 0.4375 -0.296875 0.464844 -0.382812 0.46875 -0.515625 L 0.476562 -0.710938 L 0.476562 -2.523438 C 0.476562 -2.660156 0.453125 -2.757812 0.402344 -2.804688 C 0.355469 -2.855469 0.261719 -2.890625 0.121094 -2.90625 L 0.121094 -3.070312 L 1.386719 -3.070312 L 1.386719 -2.546875 C 1.527344 -2.730469 1.667969 -2.875 1.808594 -2.984375 C 1.945312 -3.09375 2.105469 -3.148438 2.289062 -3.148438 C 2.425781 -3.148438 2.546875 -3.105469 2.65625 -3.015625 C 2.765625 -2.929688 2.824219 -2.800781 2.824219 -2.628906 C 2.824219 -2.5 2.785156 -2.394531 2.707031 -2.308594 C 2.628906 -2.222656 2.53125 -2.179688 2.40625 -2.179688 C 2.265625 -2.179688 2.140625 -2.246094 2.039062 -2.378906 C 1.9375 -2.511719 1.863281 -2.578125 1.824219 -2.578125 C 1.734375 -2.578125 1.644531 -2.523438 1.554688 -2.414062 C 1.464844 -2.304688 1.417969 -2.148438 1.417969 -1.945312 L 1.417969 -0.683594 C 1.417969 -0.460938 1.453125 -0.324219 1.515625 -0.269531 C 1.578125 -0.214844 1.707031 -0.175781 1.898438 -0.160156 L 1.898438 0 L 0.121094 0 Z "/>
</g>
<g id="glyph-0-11">
<path d="M 1.460938 -0.382812 C 1.570312 -0.382812 1.671875 -0.414062 1.765625 -0.480469 C 1.816406 -0.519531 1.878906 -0.578125 1.949219 -0.660156 L 1.949219 -1.632812 C 1.773438 -1.589844 1.617188 -1.523438 1.480469 -1.429688 C 1.253906 -1.269531 1.140625 -1.070312 1.140625 -0.824219 C 1.140625 -0.679688 1.171875 -0.566406 1.238281 -0.492188 C 1.304688 -0.417969 1.378906 -0.382812 1.460938 -0.382812 Z M 0.167969 -0.621094 C 0.167969 -0.921875 0.3125 -1.160156 0.601562 -1.335938 C 0.890625 -1.511719 1.34375 -1.6875 1.960938 -1.867188 L 1.960938 -2.351562 C 1.960938 -2.546875 1.917969 -2.695312 1.835938 -2.789062 C 1.75 -2.882812 1.601562 -2.929688 1.390625 -2.929688 C 1.269531 -2.929688 1.171875 -2.90625 1.09375 -2.863281 C 1.019531 -2.820312 0.980469 -2.761719 0.980469 -2.695312 C 0.980469 -2.667969 0.984375 -2.648438 0.992188 -2.628906 C 1 -2.613281 1.015625 -2.59375 1.03125 -2.574219 L 1.070312 -2.53125 C 1.101562 -2.492188 1.125 -2.453125 1.144531 -2.40625 C 1.164062 -2.363281 1.171875 -2.316406 1.171875 -2.265625 C 1.171875 -2.140625 1.128906 -2.042969 1.046875 -1.972656 C 0.964844 -1.90625 0.867188 -1.871094 0.753906 -1.871094 C 0.625 -1.871094 0.519531 -1.910156 0.429688 -1.984375 C 0.339844 -2.0625 0.292969 -2.171875 0.292969 -2.316406 C 0.292969 -2.570312 0.414062 -2.773438 0.65625 -2.921875 C 0.894531 -3.074219 1.191406 -3.148438 1.542969 -3.148438 C 1.921875 -3.148438 2.238281 -3.074219 2.492188 -2.929688 C 2.742188 -2.78125 2.867188 -2.511719 2.867188 -2.117188 L 2.867188 -0.5 C 2.867188 -0.453125 2.878906 -0.414062 2.90625 -0.378906 C 2.929688 -0.34375 2.957031 -0.328125 2.988281 -0.328125 C 3.015625 -0.328125 3.039062 -0.332031 3.058594 -0.34375 C 3.078125 -0.351562 3.109375 -0.378906 3.15625 -0.421875 L 3.253906 -0.285156 C 3.125 -0.132812 2.980469 -0.0234375 2.824219 0.0351562 C 2.722656 0.0742188 2.617188 0.09375 2.507812 0.09375 C 2.308594 0.09375 2.164062 0.0351562 2.074219 -0.078125 C 2.023438 -0.144531 1.984375 -0.238281 1.960938 -0.367188 C 1.777344 -0.183594 1.566406 -0.0546875 1.335938 0.0234375 C 1.195312 0.0703125 1.054688 0.09375 0.917969 0.09375 C 0.734375 0.09375 0.566406 0.0351562 0.40625 -0.078125 C 0.25 -0.195312 0.167969 -0.375 0.167969 -0.621094 Z "/>
</g>
<g id="glyph-0-12">
<path d="M 1.71875 -3.15625 C 2 -3.15625 2.242188 -3.085938 2.445312 -2.949219 C 2.652344 -2.8125 2.753906 -2.636719 2.753906 -2.421875 C 2.753906 -2.308594 2.714844 -2.207031 2.632812 -2.121094 C 2.550781 -2.039062 2.445312 -1.996094 2.320312 -1.996094 C 2.234375 -1.996094 2.164062 -2.015625 2.101562 -2.054688 C 1.980469 -2.125 1.921875 -2.25 1.921875 -2.433594 C 1.921875 -2.453125 1.921875 -2.480469 1.925781 -2.519531 C 1.925781 -2.554688 1.925781 -2.597656 1.925781 -2.640625 C 1.925781 -2.757812 1.898438 -2.835938 1.847656 -2.882812 C 1.789062 -2.925781 1.726562 -2.945312 1.652344 -2.945312 C 1.445312 -2.945312 1.300781 -2.832031 1.214844 -2.605469 C 1.128906 -2.378906 1.085938 -2.121094 1.085938 -1.828125 C 1.085938 -1.410156 1.167969 -1.058594 1.332031 -0.777344 C 1.496094 -0.496094 1.71875 -0.355469 2 -0.355469 C 2.175781 -0.355469 2.324219 -0.394531 2.449219 -0.472656 C 2.523438 -0.519531 2.613281 -0.601562 2.722656 -0.722656 L 2.84375 -0.609375 C 2.628906 -0.308594 2.375 -0.101562 2.082031 0.0117188 C 1.929688 0.0703125 1.765625 0.101562 1.59375 0.101562 C 1.164062 0.101562 0.816406 -0.0507812 0.542969 -0.359375 C 0.273438 -0.664062 0.136719 -1.039062 0.136719 -1.476562 C 0.136719 -1.941406 0.28125 -2.339844 0.566406 -2.664062 C 0.855469 -2.992188 1.238281 -3.15625 1.71875 -3.15625 Z "/>
</g>
<g id="glyph-0-13">
<path d="M 0.109375 -0.160156 C 0.226562 -0.1875 0.308594 -0.226562 0.355469 -0.273438 C 0.40625 -0.320312 0.429688 -0.414062 0.429688 -0.5625 L 0.429688 -3.957031 C 0.429688 -4.097656 0.40625 -4.191406 0.363281 -4.234375 C 0.316406 -4.277344 0.230469 -4.3125 0.109375 -4.34375 L 0.109375 -4.503906 L 1.359375 -4.503906 L 1.359375 -1.632812 L 2.203125 -2.484375 C 2.253906 -2.535156 2.289062 -2.582031 2.3125 -2.625 C 2.332031 -2.667969 2.34375 -2.707031 2.34375 -2.730469 C 2.34375 -2.796875 2.3125 -2.84375 2.253906 -2.863281 C 2.195312 -2.886719 2.09375 -2.902344 1.949219 -2.917969 L 1.949219 -3.070312 L 3.378906 -3.070312 L 3.378906 -2.917969 C 3.242188 -2.898438 3.132812 -2.875 3.054688 -2.84375 C 2.910156 -2.789062 2.769531 -2.691406 2.636719 -2.558594 L 2.121094 -2.035156 L 3.410156 -0.261719 C 3.433594 -0.222656 3.460938 -0.199219 3.484375 -0.1875 C 3.507812 -0.175781 3.539062 -0.167969 3.578125 -0.160156 L 3.578125 0 L 2.023438 0 L 2.023438 -0.160156 C 2.117188 -0.164062 2.1875 -0.175781 2.230469 -0.195312 C 2.277344 -0.214844 2.296875 -0.246094 2.296875 -0.285156 C 2.296875 -0.308594 2.289062 -0.339844 2.269531 -0.375 C 2.25 -0.414062 2.207031 -0.484375 2.136719 -0.585938 L 1.503906 -1.480469 L 1.359375 -1.320312 L 1.359375 -0.5625 C 1.359375 -0.414062 1.375 -0.3125 1.414062 -0.265625 C 1.449219 -0.214844 1.542969 -0.179688 1.695312 -0.160156 L 1.695312 0 L 0.109375 0 Z "/>
</g>
<g id="glyph-0-14">
<path d="M 0.109375 -0.167969 C 0.289062 -0.175781 0.417969 -0.199219 0.496094 -0.242188 C 0.628906 -0.3125 0.695312 -0.441406 0.695312 -0.636719 L 0.695312 -3.863281 C 0.695312 -4.058594 0.632812 -4.191406 0.507812 -4.257812 C 0.433594 -4.300781 0.300781 -4.324219 0.109375 -4.335938 L 0.109375 -4.503906 L 2.167969 -4.503906 C 2.566406 -4.503906 2.894531 -4.460938 3.15625 -4.367188 C 3.652344 -4.195312 3.898438 -3.882812 3.898438 -3.429688 C 3.898438 -3.15625 3.800781 -2.9375 3.597656 -2.773438 C 3.398438 -2.613281 3.179688 -2.511719 2.945312 -2.46875 L 2.945312 -2.40625 C 3.191406 -2.359375 3.410156 -2.277344 3.589844 -2.164062 C 3.945312 -1.941406 4.125 -1.636719 4.125 -1.242188 C 4.125 -0.871094 3.953125 -0.574219 3.613281 -0.34375 C 3.273438 -0.113281 2.820312 0 2.253906 0 L 0.109375 0 Z M 1.757812 -2.484375 C 2.171875 -2.484375 2.445312 -2.550781 2.589844 -2.6875 C 2.730469 -2.820312 2.800781 -3.058594 2.800781 -3.402344 C 2.800781 -3.65625 2.753906 -3.871094 2.660156 -4.042969 C 2.570312 -4.214844 2.390625 -4.304688 2.128906 -4.304688 C 1.988281 -4.304688 1.894531 -4.28125 1.839844 -4.234375 C 1.785156 -4.1875 1.757812 -4.101562 1.757812 -3.980469 Z M 1.757812 -0.617188 C 1.761719 -0.5 1.777344 -0.414062 1.808594 -0.359375 C 1.863281 -0.261719 1.96875 -0.214844 2.121094 -0.214844 C 2.4375 -0.214844 2.65625 -0.300781 2.785156 -0.472656 C 2.910156 -0.644531 2.976562 -0.886719 2.976562 -1.203125 C 2.976562 -1.675781 2.835938 -1.992188 2.554688 -2.148438 C 2.386719 -2.242188 2.121094 -2.289062 1.757812 -2.28125 Z "/>
</g>
<g id="glyph-0-15">
<path d="M 0.109375 -0.160156 C 0.226562 -0.1875 0.308594 -0.226562 0.355469 -0.273438 C 0.40625 -0.320312 0.429688 -0.414062 0.429688 -0.5625 L 0.429688 -3.957031 C 0.429688 -4.097656 0.40625 -4.191406 0.363281 -4.234375 C 0.316406 -4.277344 0.230469 -4.3125 0.109375 -4.34375 L 0.109375 -4.503906 L 1.371094 -4.503906 L 1.371094 -0.5625 C 1.371094 -0.414062 1.394531 -0.320312 1.441406 -0.273438 C 1.488281 -0.226562 1.574219 -0.191406 1.695312 -0.160156 L 1.695312 0 L 0.109375 0 Z "/>
</g>
<g id="glyph-0-16">
<path d="M 0.148438 -1.527344 C 0.148438 -1.992188 0.289062 -2.378906 0.574219 -2.6875 C 0.859375 -3 1.21875 -3.15625 1.652344 -3.15625 C 2.089844 -3.15625 2.453125 -2.996094 2.734375 -2.679688 C 3.015625 -2.363281 3.15625 -1.976562 3.15625 -1.527344 C 3.15625 -1.082031 3.015625 -0.699219 2.738281 -0.378906 C 2.460938 -0.0585938 2.097656 0.101562 1.652344 0.101562 C 1.21875 0.101562 0.855469 -0.0546875 0.574219 -0.367188 C 0.289062 -0.679688 0.148438 -1.066406 0.148438 -1.527344 Z M 1.125 -1.527344 C 1.125 -1.058594 1.148438 -0.734375 1.199219 -0.546875 C 1.273438 -0.257812 1.425781 -0.113281 1.652344 -0.113281 C 1.867188 -0.113281 2.007812 -0.226562 2.074219 -0.445312 C 2.140625 -0.667969 2.175781 -1.027344 2.175781 -1.527344 C 2.175781 -2.023438 2.140625 -2.382812 2.070312 -2.605469 C 2 -2.828125 1.859375 -2.941406 1.652344 -2.941406 C 1.425781 -2.941406 1.277344 -2.796875 1.203125 -2.507812 C 1.152344 -2.3125 1.125 -1.988281 1.125 -1.527344 Z "/>
</g>
</g>
<image id="source-44" x="0" y="0" width="0" height="0"/>
<mask id="mask-0">
<use xlink:href="#source-44"/>
</mask>
</defs>
<g fill="rgb(41.568627%, 1.960784%, 44.705882%)" fill-opacity="1">
<use xlink:href="#glyph-0-0" x="30" y="25"/>
<use xlink:href="#glyph-0-1" x="37" y="25"/>
<use xlink:href="#glyph-0-2" x="42" y="25"/>
<use xlink:href="#glyph-0-3" x="45" y="25"/>
<use xlink:href="#glyph-0-4" x="50" y="25"/>
<use xlink:href="#glyph-0-5" x="52" y="25"/>
<use xlink:href="#glyph-0-6" x="55" y="25"/>
<use xlink:href="#glyph-0-4" x="58" y="25"/>
<use xlink:href="#glyph-0-7" x="60" y="25"/>
<use xlink:href="#glyph-0-8" x="65" y="25"/>
<use xlink:href="#glyph-0-4" x="68" y="25"/>
<use xlink:href="#glyph-0-9" x="70" y="25"/>
<use xlink:href="#glyph-0-4" x="72" y="25"/>
<use xlink:href="#glyph-0-7" x="74" y="25"/>
<use xlink:href="#glyph-0-10" x="79" y="25"/>
<use xlink:href="#glyph-0-11" x="82" y="25"/>
<use xlink:href="#glyph-0-12" x="85" y="25"/>
<use xlink:href="#glyph-0-13" x="88" y="25"/>
<use xlink:href="#glyph-0-4" x="92" y="25"/>
<use xlink:href="#glyph-0-14" x="94" y="25"/>
<use xlink:href="#glyph-0-15" x="98" y="25"/>
<use xlink:href="#glyph-0-16" x="100" y="25"/>
<use xlink:href="#glyph-0-12" x="103" y="25"/>
<use xlink:href="#glyph-0-13" x="106" y="25"/>
</g>
</svg>
