<?xml version="1.0" encoding="UTF-8"?>
<svg xmlns="http://www.w3.org/2000/svg" xmlns:xlink="http://www.w3.org/1999/xlink" width="2560" height="1440" viewBox="0 0 2560 1440">
<defs>
<g>
<g id="glyph-0-0">
<path d="M 0.03125 -0.0429688 C 0.0742188 -0.0429688 0.109375 -0.0507812 0.128906 -0.0585938 C 0.160156 -0.078125 0.175781 -0.109375 0.175781 -0.160156 L 0.175781 -0.964844 C 0.175781 -1.015625 0.160156 -1.046875 0.128906 -1.066406 C 0.113281 -1.074219 0.078125 -1.082031 0.03125 -1.085938 L 0.03125 -1.125 L 0.613281 -1.125 L 0.613281 -1.085938 C 0.546875 -1.082031 0.5 -1.074219 0.476562 -1.054688 C 0.453125 -1.039062 0.445312 -0.996094 0.445312 -0.929688 L 0.445312 -0.144531 C 0.445312 -0.105469 0.453125 -0.0820312 0.472656 -0.0703125 C 0.492188 -0.0585938 0.53125 -0.0546875 0.585938 -0.0546875 C 0.6875 -0.0546875 0.769531 -0.0742188 0.839844 -0.121094 C 0.90625 -0.164062 0.964844 -0.25 1.015625 -0.378906 L 1.0625 -0.378906 L 0.996094 0 L 0.03125 0 Z "/>
</g>
<g id="glyph-0-1">
<path d="M 0.0625 -0.554688 C 0.0625 -0.71875 0.113281 -0.859375 0.222656 -0.972656 C 0.332031 -1.089844 0.472656 -1.148438 0.644531 -1.148438 C 0.714844 -1.148438 0.78125 -1.136719 0.851562 -1.109375 C 0.917969 -1.082031 0.960938 -1.070312 0.980469 -1.070312 C 0.996094 -1.070312 1.011719 -1.078125 1.023438 -1.089844 C 1.035156 -1.101562 1.042969 -1.121094 1.050781 -1.144531 L 1.09375 -1.144531 L 1.09375 -0.757812 L 1.054688 -0.757812 C 1.011719 -0.839844 0.972656 -0.90625 0.929688 -0.957031 C 0.851562 -1.046875 0.765625 -1.089844 0.664062 -1.089844 C 0.558594 -1.089844 0.480469 -1.042969 0.429688 -0.953125 C 0.378906 -0.859375 0.355469 -0.726562 0.355469 -0.558594 C 0.355469 -0.417969 0.378906 -0.292969 0.425781 -0.1875 C 0.472656 -0.078125 0.558594 -0.0234375 0.691406 -0.0234375 C 0.761719 -0.0234375 0.808594 -0.0390625 0.832031 -0.0664062 C 0.847656 -0.0859375 0.855469 -0.109375 0.855469 -0.144531 L 0.855469 -0.320312 C 0.855469 -0.371094 0.839844 -0.402344 0.808594 -0.417969 C 0.789062 -0.429688 0.746094 -0.433594 0.6875 -0.433594 L 0.6875 -0.476562 L 1.257812 -0.476562 L 1.257812 -0.433594 C 1.199219 -0.433594 1.160156 -0.421875 1.144531 -0.402344 C 1.125 -0.378906 1.113281 -0.339844 1.113281 -0.285156 L 1.113281 -0.0703125 C 1.078125 -0.046875 1.019531 -0.0234375 0.9375 -0.00390625 C 0.855469 0.0195312 0.761719 0.03125 0.660156 0.03125 C 0.472656 0.03125 0.328125 -0.0273438 0.214844 -0.144531 C 0.113281 -0.253906 0.0625 -0.390625 0.0625 -0.554688 Z "/>
</g>
</g>
</defs>
<g fill="rgb(100%, 100%, 100%)" fill-opacity="1">
<use xlink:href="#glyph-0-0" x="30" y="21.25"/>
<use xlink:href="#glyph-0-1" x="31" y="21.25"/>
</g>
</svg>
