<?xml version="1.0" encoding="UTF-8"?>
<svg xmlns="http://www.w3.org/2000/svg" xmlns:xlink="http://www.w3.org/1999/xlink" width="854" height="480" viewBox="0 0 854 480">
<defs>
<g>
<g id="glyph-0-0">
<path d="M 1.996094 -2.816406 L 1.996094 -2.710938 C 1.847656 -2.699219 1.75 -2.671875 1.695312 -2.628906 C 1.644531 -2.589844 1.621094 -2.488281 1.621094 -2.328125 L 1.621094 -0.53125 C 1.621094 -0.234375 1.539062 -0.00390625 1.378906 0.160156 C 1.21875 0.324219 0.992188 0.40625 0.699219 0.40625 C 0.492188 0.40625 0.328125 0.351562 0.203125 0.238281 C 0.078125 0.128906 0.015625 0.0078125 0.015625 -0.117188 C 0.015625 -0.222656 0.0429688 -0.300781 0.105469 -0.359375 C 0.164062 -0.417969 0.234375 -0.449219 0.316406 -0.449219 C 0.398438 -0.449219 0.464844 -0.417969 0.519531 -0.363281 C 0.570312 -0.304688 0.597656 -0.238281 0.597656 -0.160156 C 0.597656 -0.0898438 0.582031 -0.0273438 0.546875 0.0351562 C 0.515625 0.0976562 0.5 0.132812 0.5 0.140625 C 0.5 0.183594 0.515625 0.214844 0.546875 0.234375 C 0.578125 0.253906 0.617188 0.265625 0.664062 0.265625 C 0.789062 0.265625 0.871094 0.226562 0.914062 0.144531 C 0.9375 0.09375 0.949219 0.015625 0.949219 -0.101562 L 0.949219 -2.414062 C 0.949219 -2.539062 0.90625 -2.625 0.824219 -2.664062 C 0.773438 -2.6875 0.675781 -2.703125 0.527344 -2.710938 L 0.527344 -2.816406 Z "/>
</g>
<g id="glyph-0-1">
<path d="M 0.109375 -2.816406 L 2.617188 -2.816406 L 2.621094 -1.976562 L 2.503906 -1.976562 C 2.464844 -2.277344 2.351562 -2.476562 2.164062 -2.585938 C 2.058594 -2.644531 1.90625 -2.675781 1.695312 -2.679688 L 1.695312 -0.484375 C 1.695312 -0.332031 1.722656 -0.230469 1.777344 -0.179688 C 1.832031 -0.128906 1.941406 -0.105469 2.113281 -0.105469 L 2.113281 0 L 0.625 0 L 0.625 -0.105469 C 0.789062 -0.105469 0.898438 -0.132812 0.953125 -0.183594 C 1.003906 -0.234375 1.03125 -0.335938 1.03125 -0.484375 L 1.03125 -2.679688 C 0.828125 -2.675781 0.671875 -2.640625 0.5625 -2.585938 C 0.363281 -2.476562 0.25 -2.273438 0.226562 -1.976562 L 0.105469 -1.976562 Z "/>
</g>
</g>
</defs>
<g fill="rgb(0%, 0%, 0%)" fill-opacity="1">
<use xlink:href="#glyph-0-0" x="30" y="23.125"/>
<use xlink:href="#glyph-0-1" x="32" y="23.125"/>
</g>
</svg>
